<svg width="20" height="20" viewBox="0 0 20 20" fill="none" xmlns="http://www.w3.org/2000/svg">
    <path d="m5.042 15.7-.592-.41.145-.27c.147.083.275.148.397.222.18.11.29.074.399-.12 1.185-2.112 2.376-4.222 3.572-6.33.98-1.728 1.975-3.45 3.246-4.987.404-.49.908-.896 1.375-1.332.118-.104.248-.194.387-.27.244-.14.514-.313.779-.11.277.21.15.523.063.78-.476 1.407-1.368 2.483-2.64 3.245-.086.052-.175.1-.274.157.27.607-.091 1.026-.447 1.43-.497.565-1.062 1.08-1.514 1.672-.696.92-1.323 1.893-1.976 2.844a.337.337 0 0 0-.052.229c.39-.36.77-.729 1.17-1.079.622-.539 1.276-1.042 2.068-1.297.383-.119.783-.176 1.185-.168.596.01.982.448 1.01 1.047.043.788-.269 1.45-.759 2.03-1.217 1.44-2.818 2.23-4.622 2.636-.632.142-1.281.214-1.927.284-.309.034-.404.238-.512.463-.107.226-.152.533-.328.667-.325.254-.729.405-1.1.595L4 17.535 5.042 15.7zm1.034-.217c.215-.021.349-.028.48-.05.243-.039.486-.08.728-.134 1.685-.357 3.15-1.1 4.214-2.501.39-.515.696-1.079.714-1.747.012-.411-.17-.607-.576-.54a2.912 2.912 0 0 0-.91.321c-1.974 1.082-3.355 2.764-4.65 4.651zm5.272-9.504.1.088c1.146-.83 2.103-1.809 2.573-3.18l-.098-.077c-.859 1.055-1.717 2.112-2.575 3.169zm-.147.27-1.134 1.897c.4-.375.741-.692 1.082-1.017.26-.25.314-.53.052-.88zM5.452 17.46c.135-.039.275-.109.413-.11 1.618-.008 3.236-.005 4.854-.005h4.242l.04.116c-.116.045-.23.128-.346.128-1.134.01-2.269.006-3.403.006H5.489l-.037-.136z" fill="#666"/>
</svg>
