<svg width="20" height="20" viewBox="0 0 20 20" fill="none" xmlns="http://www.w3.org/2000/svg">
    <path d="M4.002 15.988c0-3.965 0-7.93-.002-11.895C4 4.017 4.017 4 4.092 4c1.331.003 2.662.003 3.992.002a.399.399 0 0 1 .167.163c.714 1.1 1.43 2.198 2.148 3.295.414.634.825 1.271 1.243 1.902.067.1.122.207.202.303.02-.044.011-.085.011-.124V4.186c0-.065-.016-.137.05-.184h4.083c.02.034.01.072.01.108v11.773c0 .13.014.114-.111.114-1.294 0-2.588 0-3.882.002a.249.249 0 0 1-.234-.127c-.492-.776-.99-1.549-1.484-2.324-.637-.998-1.276-1.996-1.915-2.993-.072-.112-.139-.228-.224-.343-.022.053-.013.1-.013.146v5.438c0 .202 0 .202-.204.202H4.11c-.036 0-.074.01-.108-.01z" fill="#666"/>
</svg>
